<?xml version="1.0" encoding="UTF-8" standalone="no"?>
<svg
   xmlns:dc="http://purl.org/dc/elements/1.1/"
   xmlns:cc="http://creativecommons.org/ns#"
   xmlns:rdf="http://www.w3.org/1999/02/22-rdf-syntax-ns#"
   xmlns:svg="http://www.w3.org/2000/svg"
   xmlns="http://www.w3.org/2000/svg"
   xmlns:sodipodi="http://sodipodi.sourceforge.net/DTD/sodipodi-0.dtd"
   xmlns:inkscape="http://www.inkscape.org/namespaces/inkscape"
   width="109.75986mm"
   height="157.68866mm"
   viewBox="0 0 109.75986 157.68866"
   version="1.1"
   id="svg8"
   inkscape:version="1.0 (4035a4f, 2020-05-01)"
   sodipodi:docname="cuppy sad.svg">
  <defs
     id="defs2">
    <inkscape:path-effect
       effect="bspline"
       id="path-effect890"
       is_visible="true"
       lpeversion="1"
       weight="33.333333"
       steps="2"
       helper_size="0"
       apply_no_weight="true"
       apply_with_weight="true"
       only_selected="false" />
  </defs>
  <sodipodi:namedview
     fit-margin-bottom="0"
     fit-margin-right="0"
     fit-margin-left="0"
     fit-margin-top="0"
     id="base"
     pagecolor="#ffffff"
     bordercolor="#666666"
     borderopacity="0"
     inkscape:pageopacity="0"
     inkscape:pageshadow="2"
     inkscape:zoom="0.88606883"
     inkscape:cx="301.34437"
     inkscape:cy="355.74099"
     inkscape:document-units="mm"
     inkscape:current-layer="layer1"
     inkscape:document-rotation="0"
     showgrid="false"
     showguides="false"
     inkscape:window-width="1440"
     inkscape:window-height="771"
     inkscape:window-x="709"
     inkscape:window-y="347"
     inkscape:window-maximized="0" />
  <metadata
     id="metadata5">
    <rdf:RDF>
      <cc:Work
         rdf:about="">
        <dc:format>image/svg+xml</dc:format>
        <dc:type
           rdf:resource="http://purl.org/dc/dcmitype/StillImage" />
        <dc:title></dc:title>
      </cc:Work>
    </rdf:RDF>
  </metadata>
  <g
     transform="translate(-108.70993,36.553673)"
     inkscape:label="Layer 1"
     inkscape:groupmode="layer"
     id="layer1">
    <path
       sodipodi:nodetypes="ccsssccssssc"
       id="path847-4"
       d="m 109.04879,-21.407374 19.49932,133.031564 c 0,0 3.47704,3.13699 9.97193,5.67483 6.99877,2.73473 16.01041,3.4504 22.49854,3.59111 7.07127,0.15336 18.74977,0.0633 27.25421,-2.85968 6.54002,-2.24778 10.87602,-5.33517 10.87602,-5.33517 l 18.83858,-134.805484 c 0,0 -1.59734,3.16658 -5.58868,5.75391 -2.97231,1.92675 -7.54365,3.12516 -12.32118,4.63105 -11.69982,3.6878103 -28.10179,4.0538403 -37.9268,4.0534603 -9.79747,-3.7e-4 -26.95925,-1.38387 -38.35095,-5.0450803 -9.86651,-3.17103 -14.75099,-8.69051 -14.75099,-8.69051 z"
       style="fill:#90d4df;fill-opacity:1;stroke:#000000;stroke-width:0.4;stroke-linecap:butt;stroke-linejoin:miter;stroke-miterlimit:4;stroke-dasharray:none;stroke-opacity:1" />
    <ellipse
       ry="14.272635"
       rx="54.679535"
       cy="-22.080645"
       cx="163.58986"
       id="path855-9"
       style="fill:#ece2d5;fill-opacity:0.758064;stroke:#000000;stroke-width:0.400785;stroke-miterlimit:4;stroke-dasharray:none;stroke-opacity:1" />
    <path
       sodipodi:nodetypes="ccsccsssc"
       id="path867-1"
       d="m 117.47566,39.303151 8.27421,53.63548 c 12.26881,4.53363 23.37691,8.179119 35.07477,8.530719 12.57578,0.37799 25.78876,-2.875019 40.53428,-7.683849 l 8.55952,-53.91777 c 0,0 -6.51902,4.44503 -15.91553,6.9991 -10.19348,2.7707 -23.62187,3.6655 -31.73893,3.59315 -9.01851,-0.0804 -23.68438,-1.9792 -34.06797,-5.11672 -8.11964,-2.45345 -10.72035,-6.04011 -10.72035,-6.04011 z"
       style="fill:#be7a4c;fill-opacity:0.673387;stroke:#000000;stroke-width:0.4;stroke-linecap:butt;stroke-linejoin:miter;stroke-miterlimit:4;stroke-dasharray:none;stroke-opacity:1" />
    <ellipse
       style="fill:#000000;fill-opacity:0.673387;stroke:#000000;stroke-width:0.4;stroke-miterlimit:4;stroke-dasharray:none;stroke-opacity:1"
       id="path869-7"
       cx="143.50697"
       cy="12.350393"
       rx="5.6458402"
       ry="5.2224021" />
    <ellipse
       ry="5.2224021"
       rx="5.6458402"
       cy="12.491552"
       cx="188.67369"
       id="path869-0-5"
       style="fill:#000000;fill-opacity:0.673387;stroke:#000000;stroke-width:0.4;stroke-miterlimit:4;stroke-dasharray:none;stroke-opacity:1" />
    <path
       style="fill:none;stroke:#000000;stroke-width:0.4;stroke-linecap:butt;stroke-linejoin:miter;stroke-miterlimit:4;stroke-dasharray:none;stroke-opacity:1"
       d="m 180.35197,40.45812 c 0,0 -2.57671,-2.52274 -5.57467,-3.69404 -3.37006,-1.31668 -7.34685,-1.29775 -10.23514,-1.27285 -2.31925,0.02 -7.13723,0.97092 -10.28811,2.05797 -4.26375,1.47098 0,0 0,0"
       id="path894-5"
       sodipodi:nodetypes="csssc" />
    <path
       style="fill:#000e00;fill-opacity:1;stroke:#000000;stroke-width:0.4;stroke-miterlimit:4;stroke-dasharray:none;stroke-opacity:1"
       id="path965"
       d="m 151.59851,60.754262 c -1.5876,0.73256 -2.72658,1.81803 -3.56471,3.36945 -0.21279,0.39388 -0.37758,0.81308 -0.56637,1.21963 -0.70271,1.92727 -1.01878,4.00026 -0.66306,6.04496 0.21583,1.24059 0.40058,1.46752 0.90316,2.57607 0.68104,1.0518 1.52183,2.209919 2.83483,2.416629 0.61792,0.0973 0.85576,-0.0378 1.44207,-0.20147 0,0 0.72957,-0.576269 0.72957,-0.576269 v 0 c -0.56504,0.17642 -0.81,0.31983 -1.41318,0.24568 -1.306,-0.16053 -2.15532,-1.29192 -2.83842,-2.32272 -0.50058,-1.08464 -0.69223,-1.32225 -0.90694,-2.53984 -0.3591,-2.0363 -0.0233,-4.09953 0.69844,-6.00906 0.51284,-1.06394 0.55383,-1.28367 1.23136,-2.20097 0.20141,-0.2727 0.42229,-0.53085 0.65528,-0.77567 0.18371,-0.19302 0.43593,-0.31785 0.59205,-0.53491 0.0593,-0.0824 -0.35141,0.17768 -0.28207,0.10394 0.099,-0.10524 0.25185,-0.13714 0.37777,-0.2057 0,0 0.77022,-0.60975 0.77022,-0.60975 z" />
    <path
       style="fill:#000e00;fill-opacity:1;stroke:#000000;stroke-width:0.4;stroke-miterlimit:4;stroke-dasharray:none;stroke-opacity:1"
       id="path967"
       d="m 154.82399,68.894482 c -0.50601,1.14077 -0.70187,2.37118 -0.39071,3.60227 0.0777,0.30726 0.18176,0.61342 0.34053,0.88591 0.1242,0.21315 0.3293,0.36415 0.49396,0.54623 0.20024,0.0511 0.39477,0.16605 0.60074,0.15319 0.22108,-0.0138 0.43597,-0.11227 0.62556,-0.22969 0.46901,-0.29047 0.92898,-0.60627 1.33442,-0.98417 0.38033,-0.35449 0.82663,-1.43173 1.03951,-1.93512 0.0533,-0.16737 0.11459,-0.33228 0.15989,-0.50211 0.0327,-0.12246 0.0525,-0.24822 0.0736,-0.37332 0.0995,-0.59091 -0.18476,-0.31917 -0.88661,0.33568 -0.0637,0.0594 -0.0123,0.17613 -0.0185,0.2642 -0.0979,1.04632 -0.0456,2.07806 0.16534,3.10508 0.24406,0.64528 0.089,0.35311 0.45172,0.88398 0,0 0.81762,-0.49499 0.81762,-0.49499 v 0 c -0.3565,-0.50007 -0.20362,-0.22202 -0.4429,-0.84305 -0.21158,-1.04153 -0.24821,-2.03568 -0.12484,-3.09258 0.0744,-0.57139 0.11494,-0.29977 -0.81716,0.082 -0.057,0.0233 0.003,0.12629 -0.006,0.18848 -0.0172,0.11965 -0.0355,0.23961 -0.0657,0.35653 -0.0426,0.16522 -0.1016,0.32557 -0.1524,0.48835 -0.20993,0.49718 -0.3054,0.77064 -0.59344,1.2422 -0.13811,0.22608 -0.37672,0.39698 -0.45227,0.65225 -0.0243,0.082 0.31072,-0.0193 0.24812,0.0375 -0.45022,0.4087 -0.6651,0.2587 -1.16822,0.17228 -0.16455,-0.1682 -0.37002,-0.3029 -0.49366,-0.50462 -0.16069,-0.2622 -0.2661,-0.56045 -0.34269,-0.86 -0.31634,-1.23718 -0.0718,-2.46658 0.48858,-3.58286 0,0 -0.88426,0.40634 -0.88426,0.40634 z" />
    <path
       style="fill:#000e00;fill-opacity:1;stroke:#000000;stroke-width:0.4;stroke-miterlimit:4;stroke-dasharray:none;stroke-opacity:1"
       id="path971"
       d="m 162.72819,69.137962 c -0.0851,2.30682 -0.18907,4.61215 -0.33916,6.915889 -0.0307,0.42713 -0.0916,1.51327 -0.1812,2.00659 -0.0219,0.12035 -0.22596,0.39739 -0.11714,0.34705 0.28751,-0.13303 0.58213,-0.33718 0.7222,-0.62699 0.0867,-0.17947 -0.10184,-0.38725 -0.13673,-0.58435 -0.0528,-0.29864 -0.0842,-0.60086 -0.12625,-0.9013 -0.19916,-1.700439 -0.20837,-3.431209 0.14644,-5.112709 0.24018,-1.13826 0.38934,-1.39129 0.80571,-2.44867 0.45197,-0.76496 0.6081,-1.14262 1.22489,-1.76605 0.2206,-0.22296 0.48035,-0.40118 0.72394,-0.59735 0.017,-0.0137 -0.0646,0.054 -0.0435,0.0493 1.17033,-0.26032 0.25504,-0.20792 1.44751,-0.18534 0.23602,0.0798 0.48318,0.13094 0.70806,0.23943 0.88237,0.42565 1.54065,1.30621 1.83657,2.24674 0.0708,0.22508 0.0934,0.46322 0.14009,0.69483 0.0423,1.03436 -0.24,2.04289 -1.05319,2.70917 -0.12586,0.10312 -0.26904,0.18178 -0.40356,0.27267 -0.12293,0.0724 -0.41309,0.35515 -0.36878,0.21709 0.0507,-0.15793 0.47035,-0.14721 0.3933,-0.29351 -0.0773,-0.14675 -0.30469,0.11748 -0.46014,0.16662 -0.48078,0.15198 -0.97239,0.23745 -1.46785,0.31858 -0.68888,0.12718 -1.38914,0.17153 -2.07587,0.30954 -0.20122,0.0333 -0.39545,0.1024 -0.59631,0.13621 -0.1443,0.0188 -0.29007,0.007 -0.43431,0.0233 -0.0828,0.0277 -0.0418,0.0111 -0.12292,0.0501 0,0 -0.7735,0.6281 -0.7735,0.6281 v 0 c 0.0823,-0.0348 0.0443,-0.0138 0.11465,-0.0617 0.12964,-0.0653 0.28349,-0.0147 0.42458,-0.0366 0.21062,-0.0123 0.40655,-0.10154 0.61392,-0.13807 0.691,-0.15123 1.39591,-0.20656 2.09233,-0.32781 1.38549,-0.22296 2.31741,-0.4942 3.54134,-1.34643 0.13128,-0.0957 0.27178,-0.1794 0.39384,-0.2872 0.7988,-0.70558 1.056,-1.74178 0.99724,-2.78809 -0.0505,-0.23699 -0.0772,-0.48063 -0.15148,-0.71096 -0.31062,-0.96381 -0.98174,-1.85862 -1.87896,-2.31109 -0.22935,-0.11566 -0.48161,-0.17565 -0.72241,-0.26347 -0.24898,-0.0115 -0.49893,-0.0598 -0.74695,-0.0346 -1.32417,0.13453 -2.83581,1.3609 -3.5832,2.47691 -0.21012,0.31375 -0.37465,0.65714 -0.56198,0.9857 -0.14856,0.38889 -0.31884,0.76976 -0.44571,1.16665 -0.66532,2.08139 -0.73354,4.28802 -0.51507,6.450769 0.0351,0.30724 0.0606,0.61579 0.10535,0.9217 0.0317,0.21686 -0.081,0.58294 0.12398,0.64545 1.19944,0.36576 1.07271,-0.84816 1.11346,-1.46635 0.0257,-0.38944 0.0439,-0.77936 0.0659,-1.169039 0.13655,-2.32661 0.22854,-4.65892 0.4473,-6.97867 0,0 -0.87643,0.45791 -0.87643,0.45791 z" />
    <path
       style="fill:#000e00;fill-opacity:1;stroke:#000000;stroke-width:0.4;stroke-miterlimit:4;stroke-dasharray:none;stroke-opacity:1"
       id="path973"
       d="m 171.36819,68.340482 c 0.0713,1.29505 0.14132,2.59491 0.11088,3.89273 -0.0102,0.43252 -0.0525,1.66083 -0.23304,2.17591 -0.0361,0.10302 -0.14992,0.15587 -0.22488,0.23379 0.21261,-0.27574 0.55519,-0.48609 0.63783,-0.82724 0.0784,-0.32341 -0.17011,-0.64658 -0.20042,-0.97838 -0.0443,-0.48472 -0.0553,-0.97468 -0.0224,-1.46035 0.0732,-1.07932 0.32072,-2.29588 0.71124,-3.3028 0.18385,-0.47404 0.45636,-0.90666 0.68454,-1.35999 0.28847,-0.31799 0.55958,-0.65352 0.86539,-0.95399 0.0434,-0.0426 0.10999,-0.0552 0.16965,-0.0629 0.65542,-0.0851 0.98144,-0.19186 1.53299,0.25835 0.558,0.45549 0.55392,0.83787 0.7423,1.49859 -0.005,0.305 0.029,0.61331 -0.015,0.91499 -0.12961,0.88826 -0.61003,1.64845 -1.25606,2.23454 -1.15362,1.04656 -0.79325,0.64383 -0.59076,0.40972 -0.19902,0.0833 -0.39803,0.16664 -0.59705,0.24996 0,0 -0.73027,0.58928 -0.73027,0.58928 v 0 c 0.20413,-0.0838 0.40827,-0.16754 0.6124,-0.25131 0.76546,-0.43279 1.50641,-0.75443 2.14421,-1.35781 0.64472,-0.60993 1.10705,-1.39076 1.22386,-2.29454 0.0402,-0.31073 0.003,-0.6269 0.004,-0.94035 -0.19832,-0.68873 -0.19934,-1.08813 -0.77359,-1.57124 -1.07558,-0.90487 -2.36912,-0.033 -3.26832,0.66772 -0.33438,0.26055 -0.55728,0.64439 -0.83591,0.96659 -0.22078,0.4555 -0.48353,0.89205 -0.66233,1.36652 -0.57139,1.51634 -0.83084,3.20856 -0.72933,4.83092 0.0218,0.34842 -0.1018,0.81923 0.16718,1.03331 0.28237,0.22472 0.71421,-0.0318 1.07131,-0.0476 0.0525,-0.0855 0.13341,-0.15847 0.15743,-0.25642 0.13162,-0.53668 0.15894,-1.70834 0.16772,-2.15896 0.0257,-1.31716 -0.0244,-2.63511 -0.009,-3.95235 0,0 -0.85457,0.45339 -0.85457,0.45339 z" />
    <path
       sodipodi:nodetypes="ccccc"
       id="path868"
       d="m 136.8801,27.647621 c -0.5486,2.182999 2.94222,6.160427 2.94222,6.160427 0,0 4.03529,-4.167725 3.88123,-6.046344 -0.15407,-1.87862 -1.73835,-2.86259 -3.25755,-2.907559 -1.56671,-0.04638 -3.21602,1.401191 -3.5659,2.793476 z"
       style="fill:#0209f8;fill-opacity:0.182186;stroke:#000000;stroke-width:0.252561px;stroke-linecap:butt;stroke-linejoin:miter;stroke-opacity:1" />
    <path
       d="m 180.41251,65.951677 c 0.006,1.067549 0.0358,2.133028 0.0823,3.199574 0.0197,1.021435 0.12385,2.037988 0.22684,3.053504 0.0233,0.264832 0.0457,0.530222 0.05,0.796187 0.0309,0.04669 0.0494,0.09622 0.12092,0.09709 0.20416,0.0024 0.76485,-0.293259 0.94509,-0.379595 1.33103,-0.716005 2.57916,-1.578488 3.76343,-2.515269 0.81167,-0.633246 1.52336,-1.377138 2.27959,-2.071611 0.23714,-0.248124 0.58039,-0.429887 0.73717,-0.748369 -0.0189,-0.02955 -0.0245,-0.102431 -0.0568,-0.08865 -0.96983,0.413949 -1.47145,0.885325 -2.26178,1.51401 -1.31718,1.001818 -2.67916,1.942496 -4.01718,2.91657 -1.27464,0.998734 -2.51707,2.039374 -3.73792,3.103126 -0.97186,0.846426 -1.88968,1.749798 -2.7748,2.685606 -0.33263,0.35705 -0.67404,0.705191 -0.98633,1.0805 -0.13931,0.167415 -0.29394,0.331041 -0.37374,0.535191 -0.005,0.02867 -0.0105,0.05733 -0.0158,0.08599 0,0 0.96854,-0.465233 0.96854,-0.465233 v 0 c 0.007,-0.0223 0.0138,-0.04462 0.0207,-0.06692 0.30121,-0.596141 0.91957,-1.04461 1.32521,-1.561331 0.88384,-0.932262 1.80395,-1.828508 2.77191,-2.673873 1.21504,-1.057654 2.44544,-2.099683 3.71914,-3.086286 1.34624,-0.982752 2.72405,-1.92115 4.04827,-2.933313 0.27636,-0.218279 0.54693,-0.443905 0.82582,-0.65894 0.30036,-0.231589 0.46746,-0.316388 0.44687,-0.306363 -0.88771,0.432204 -0.73092,0.736727 -0.88677,0.358026 -0.19346,0.277553 -0.48006,0.470749 -0.71802,0.706146 -0.74028,0.69954 -1.45462,1.427597 -2.2605,2.054614 -0.49153,0.384715 -0.9921,0.753811 -1.50578,1.108697 -0.17074,0.117962 -0.34327,0.233331 -0.51631,0.347909 -0.16146,0.106918 -0.6116,0.168169 -0.48716,0.31655 0.12558,0.149733 0.33979,-0.19313 0.50968,-0.289695 -0.34717,0.174418 -0.24165,0.132392 -0.57737,0.262453 -0.10725,0.04155 -0.22858,0.05849 -0.32065,0.127424 -0.0156,0.01169 -0.004,0.05145 -0.0274,0.05175 -0.0203,-0.264126 -0.0463,-0.527796 -0.0746,-0.791179 -0.12203,-1.004437 -0.26248,-2.008759 -0.26948,-3.022983 -0.036,-1.075328 -0.056,-2.150975 -0.0205,-3.226702 0,0 -0.95264,0.485391 -0.95264,0.485391 z"
       id="path916"
       style="fill:#000000;fill-opacity:1;stroke:#000000;stroke-width:0.799999" />
  </g>
</svg>
