{
    "asset": {
        "version": "2.0",
        "generator": "Open Asset Import Library (assimp v5.0.5eb040c7)"
    },
    "accessors": [
        {
            "bufferView": 0,
            "byteOffset": 0,
            "componentType": 5126,
            "count": 8,
            "type": "VEC3",
            "max": [
                14.593500137329102,
                9.920700073242188,
                6.906599998474121
            ],
            "min": [
                -13.948699951171875,
                9.025799751281739,
                2.3729000091552736
            ]
        },
        {
            "bufferView": 1,
            "byteOffset": 0,
            "componentType": 5126,
            "count": 8,
            "type": "VEC3",
            "max": [
                0.0,
                0.9848158359527588,
                0.17360278964042664
            ],
            "min": [
                0.0,
                -0.9848158359527588,
                -0.17360278964042664
            ]
        },
        {
            "bufferView": 2,
            "byteOffset": 0,
            "componentType": 5126,
            "count": 8,
            "type": "VEC3",
            "max": [
                2.791100025177002,
                14.759400367736817,
                0.41530001163482668
            ],
            "min": [
                -1.791100025177002,
                -13.759400367736817,
                0.31529998779296877
            ]
        },
        {
            "bufferView": 3,
            "byteOffset": 0,
            "componentType": 5125,
            "count": 12,
            "type": "SCALAR",
            "max": [
                7
            ],
            "min": [
                0
            ]
        },
        {
            "bufferView": 4,
            "byteOffset": 0,
            "componentType": 5126,
            "count": 190,
            "type": "VEC3",
            "max": [
                15.262100219726563,
                10.105400085449219,
                8.051300048828125
            ],
            "min": [
                -14.617400169372559,
                8.566699981689454,
                1.2839000225067139
            ]
        },
        {
            "bufferView": 5,
            "byteOffset": 0,
            "componentType": 5126,
            "count": 190,
            "type": "VEC3",
            "max": [
                1.0,
                0.9986312985420227,
                0.9848158359527588
            ],
            "min": [
                -1.0,
                -0.9848158359527588,
                -0.9986365437507629
            ]
        },
        {
            "bufferView": 6,
            "byteOffset": 0,
            "componentType": 5126,
            "count": 190,
            "type": "VEC3",
            "max": [
                15.427499771118164,
                15.427499771118164,
                15.427499771118164
            ],
            "min": [
                -14.427499771118164,
                -14.427499771118164,
                -14.427499771118164
            ]
        },
        {
            "bufferView": 7,
            "byteOffset": 0,
            "componentType": 5125,
            "count": 540,
            "type": "SCALAR",
            "max": [
                189
            ],
            "min": [
                0
            ]
        },
        {
            "bufferView": 8,
            "byteOffset": 0,
            "componentType": 5126,
            "count": 51476,
            "type": "VEC3",
            "max": [
                15.910099983215332,
                10.346199989318848,
                9.89430046081543
            ],
            "min": [
                -15.309100151062012,
                -0.07689999788999558,
                -9.760499954223633
            ]
        },
        {
            "bufferView": 9,
            "byteOffset": 0,
            "componentType": 5126,
            "count": 51476,
            "type": "VEC3",
            "max": [
                1.0,
                0.9999960660934448,
                0.9999998807907105
            ],
            "min": [
                -1.0,
                -0.9999948740005493,
                -0.9999988079071045
            ]
        },
        {
            "bufferView": 10,
            "byteOffset": 0,
            "componentType": 5126,
            "count": 51476,
            "type": "VEC3",
            "max": [
                1.815000057220459,
                1.3438000679016114,
                8.649900436401368
            ],
            "min": [
                -0.8149999976158142,
                -7.647800445556641,
                -0.8116000294685364
            ]
        },
        {
            "bufferView": 11,
            "byteOffset": 0,
            "componentType": 5125,
            "count": 255150,
            "type": "SCALAR",
            "max": [
                51475
            ],
            "min": [
                0
            ]
        },
        {
            "bufferView": 12,
            "byteOffset": 0,
            "componentType": 5126,
            "count": 11110,
            "type": "VEC3",
            "max": [
                15.136199951171875,
                9.89739990234375,
                8.006799697875977
            ],
            "min": [
                -14.53499984741211,
                8.539999961853028,
                1.3622000217437745
            ]
        },
        {
            "bufferView": 13,
            "byteOffset": 0,
            "componentType": 5126,
            "count": 11110,
            "type": "VEC3",
            "max": [
                1.0,
                0.9968346953392029,
                0.9966815710067749
            ],
            "min": [
                -1.0,
                -0.9968346953392029,
                -0.9966897964477539
            ]
        },
        {
            "bufferView": 14,
            "byteOffset": 0,
            "componentType": 5126,
            "count": 11110,
            "type": "VEC3",
            "max": [
                1.735300064086914,
                1.735300064086914,
                1.735300064086914
            ],
            "min": [
                -0.7353000044822693,
                -0.7353000640869141,
                -0.7353000044822693
            ]
        },
        {
            "bufferView": 15,
            "byteOffset": 0,
            "componentType": 5125,
            "count": 56076,
            "type": "SCALAR",
            "max": [
                11109
            ],
            "min": [
                0
            ]
        },
        {
            "bufferView": 16,
            "byteOffset": 0,
            "componentType": 5126,
            "count": 59898,
            "type": "VEC3",
            "max": [
                15.732799530029297,
                9.614099502563477,
                9.047699928283692
            ],
            "min": [
                -15.131799697875977,
                1.2109999656677247,
                -11.71679973602295
            ]
        },
        {
            "bufferView": 17,
            "byteOffset": 0,
            "componentType": 5126,
            "count": 59898,
            "type": "VEC3",
            "max": [
                1.0,
                0.9999206066131592,
                1.0
            ],
            "min": [
                -1.0,
                -0.9999206066131592,
                -1.0
            ]
        },
        {
            "bufferView": 18,
            "byteOffset": 0,
            "componentType": 5126,
            "count": 59898,
            "type": "VEC3",
            "max": [
                4.015100002288818,
                2.3747000694274904,
                1.3494999408721924
            ],
            "min": [
                -3.3685998916625978,
                -5.008999824523926,
                -2.0652999877929689
            ]
        },
        {
            "bufferView": 19,
            "byteOffset": 0,
            "componentType": 5125,
            "count": 253722,
            "type": "SCALAR",
            "max": [
                59897
            ],
            "min": [
                0
            ]
        },
        {
            "bufferView": 20,
            "byteOffset": 0,
            "componentType": 5126,
            "count": 10992,
            "type": "VEC3",
            "max": [
                13.463199615478516,
                9.299799919128418,
                5.713600158691406
            ],
            "min": [
                -12.733799934387207,
                8.593600273132325,
                3.72760009765625
            ]
        },
        {
            "bufferView": 21,
            "byteOffset": 0,
            "componentType": 5126,
            "count": 10992,
            "type": "VEC3",
            "max": [
                1.0,
                0.9999595880508423,
                0.9848158359527588
            ],
            "min": [
                -1.0,
                -0.17360278964042664,
                -0.9848158359527588
            ]
        },
        {
            "bufferView": 22,
            "byteOffset": 0,
            "componentType": 5126,
            "count": 10992,
            "type": "VEC2",
            "max": [
                1.0,
                0.46670001745224
            ],
            "min": [
                0.0,
                0.0
            ]
        },
        {
            "bufferView": 23,
            "byteOffset": 0,
            "componentType": 5125,
            "count": 57780,
            "type": "SCALAR",
            "max": [
                10991
            ],
            "min": [
                0
            ]
        }
    ],
    "buffers": [
        {
            "byteLength": 7261416,
            "uri": "result.bin"
        }
    ],
    "bufferViews": [
        {
            "buffer": 0,
            "byteOffset": 0,
            "byteLength": 96,
            "target": 34962
        },
        {
            "buffer": 0,
            "byteOffset": 96,
            "byteLength": 96,
            "target": 34962
        },
        {
            "buffer": 0,
            "byteOffset": 192,
            "byteLength": 96,
            "target": 34962
        },
        {
            "buffer": 0,
            "byteOffset": 288,
            "byteLength": 48,
            "target": 34963
        },
        {
            "buffer": 0,
            "byteOffset": 336,
            "byteLength": 2280,
            "target": 34962
        },
        {
            "buffer": 0,
            "byteOffset": 2616,
            "byteLength": 2280,
            "target": 34962
        },
        {
            "buffer": 0,
            "byteOffset": 4896,
            "byteLength": 2280,
            "target": 34962
        },
        {
            "buffer": 0,
            "byteOffset": 7176,
            "byteLength": 2160,
            "target": 34963
        },
        {
            "buffer": 0,
            "byteOffset": 9336,
            "byteLength": 617712,
            "target": 34962
        },
        {
            "buffer": 0,
            "byteOffset": 627048,
            "byteLength": 617712,
            "target": 34962
        },
        {
            "buffer": 0,
            "byteOffset": 1244760,
            "byteLength": 617712,
            "target": 34962
        },
        {
            "buffer": 0,
            "byteOffset": 1862472,
            "byteLength": 1020600,
            "target": 34963
        },
        {
            "buffer": 0,
            "byteOffset": 2883072,
            "byteLength": 133320,
            "target": 34962
        },
        {
            "buffer": 0,
            "byteOffset": 3016392,
            "byteLength": 133320,
            "target": 34962
        },
        {
            "buffer": 0,
            "byteOffset": 3149712,
            "byteLength": 133320,
            "target": 34962
        },
        {
            "buffer": 0,
            "byteOffset": 3283032,
            "byteLength": 224304,
            "target": 34963
        },
        {
            "buffer": 0,
            "byteOffset": 3507336,
            "byteLength": 718776,
            "target": 34962
        },
        {
            "buffer": 0,
            "byteOffset": 4226112,
            "byteLength": 718776,
            "target": 34962
        },
        {
            "buffer": 0,
            "byteOffset": 4944888,
            "byteLength": 718776,
            "target": 34962
        },
        {
            "buffer": 0,
            "byteOffset": 5663664,
            "byteLength": 1014888,
            "target": 34963
        },
        {
            "buffer": 0,
            "byteOffset": 6678552,
            "byteLength": 131904,
            "target": 34962
        },
        {
            "buffer": 0,
            "byteOffset": 6810456,
            "byteLength": 131904,
            "target": 34962
        },
        {
            "buffer": 0,
            "byteOffset": 6942360,
            "byteLength": 87936,
            "target": 34962
        },
        {
            "buffer": 0,
            "byteOffset": 7030296,
            "byteLength": 231120,
            "target": 34963
        }
    ],
    "materials": [
        {
            "name": "DefaultMaterial",
            "pbrMetallicRoughness": {
                "baseColorFactor": [
                    0.6000000238418579,
                    0.6000000238418579,
                    0.6000000238418579,
                    1.0
                ],
                "metallicFactor": 0.0
            }
        },
        {
            "name": "AM152_071_01",
            "pbrMetallicRoughness": {
                "baseColorFactor": [
                    0.6000000238418579,
                    0.6000000238418579,
                    0.6000000238418579,
                    1.0
                ],
                "metallicFactor": 0.0
            }
        },
        {
            "name": "AM152_071_02",
            "pbrMetallicRoughness": {
                "baseColorFactor": [
                    0.6000000238418579,
                    0.6000000238418579,
                    0.6000000238418579,
                    1.0
                ],
                "metallicFactor": 0.0
            }
        },
        {
            "name": "AM152_071_03",
            "pbrMetallicRoughness": {
                "baseColorFactor": [
                    0.6000000238418579,
                    0.6000000238418579,
                    0.6000000238418579,
                    1.0
                ],
                "metallicFactor": 0.0
            }
        },
        {
            "name": "AM152_071_05",
            "pbrMetallicRoughness": {
                "baseColorFactor": [
                    0.6000000238418579,
                    0.6000000238418579,
                    0.6000000238418579,
                    1.0
                ],
                "metallicFactor": 0.0
            }
        },
        {
            "name": "AM152_071_04",
            "pbrMetallicRoughness": {
                "baseColorFactor": [
                    0.6000000238418579,
                    0.6000000238418579,
                    0.6000000238418579,
                    1.0
                ],
                "metallicFactor": 0.0
            }
        }
    ],
    "meshes": [
        {
            "name": "AM152_071_12",
            "primitives": [
                {
                    "mode": 4,
                    "material": 1,
                    "indices": 3,
                    "attributes": {
                        "POSITION": 0,
                        "NORMAL": 1,
                        "TEXCOORD_0": 2
                    }
                }
            ]
        },
        {
            "name": "AM152_071_14",
            "primitives": [
                {
                    "mode": 4,
                    "material": 2,
                    "indices": 7,
                    "attributes": {
                        "POSITION": 4,
                        "NORMAL": 5,
                        "TEXCOORD_0": 6
                    }
                }
            ]
        },
        {
            "name": "AM152_071_15",
            "primitives": [
                {
                    "mode": 4,
                    "material": 3,
                    "indices": 11,
                    "attributes": {
                        "POSITION": 8,
                        "NORMAL": 9,
                        "TEXCOORD_0": 10
                    }
                }
            ]
        },
        {
            "name": "AM152_071_16",
            "primitives": [
                {
                    "mode": 4,
                    "material": 4,
                    "indices": 15,
                    "attributes": {
                        "POSITION": 12,
                        "NORMAL": 13,
                        "TEXCOORD_0": 14
                    }
                }
            ]
        },
        {
            "name": "AM152_071_17",
            "primitives": [
                {
                    "mode": 4,
                    "material": 5,
                    "indices": 19,
                    "attributes": {
                        "POSITION": 16,
                        "NORMAL": 17,
                        "TEXCOORD_0": 18
                    }
                }
            ]
        },
        {
            "name": "AM152_071_18",
            "primitives": [
                {
                    "mode": 4,
                    "material": 5,
                    "indices": 23,
                    "attributes": {
                        "POSITION": 20,
                        "NORMAL": 21,
                        "TEXCOORD_0": 22
                    }
                }
            ]
        }
    ],
    "nodes": [
        {
            "name": "input.obj",
            "children": [
                1,
                2,
                3,
                4,
                5,
                6
            ]
        },
        {
            "name": "AM152_071_12",
            "mesh": 0
        },
        {
            "name": "AM152_071_14",
            "mesh": 1
        },
        {
            "name": "AM152_071_15",
            "mesh": 2
        },
        {
            "name": "AM152_071_16",
            "mesh": 3
        },
        {
            "name": "AM152_071_17",
            "mesh": 4
        },
        {
            "name": "AM152_071_18",
            "mesh": 5
        }
    ],
    "scenes": [
        {
            "nodes": [
                0
            ]
        }
    ],
    "scene": 0
}